<?xml version="1.0" standalone="no"?>
<!DOCTYPE svg PUBLIC "-//W3C//DTD SVG 20010904//EN"
 "http://www.w3.org/TR/2001/REC-SVG-20010904/DTD/svg10.dtd">
<svg version="1.0" xmlns="http://www.w3.org/2000/svg"
 width="517.000000pt" height="512.000000pt" viewBox="0 0 517.000000 512.000000"
 preserveAspectRatio="xMidYMid meet">
<metadata>
Created by potrace 1.16, written by Peter Selinger 2001-2019
</metadata>
<g transform="translate(0.000000,512.000000) scale(0.100000,-0.100000)"
fill="#000000" stroke="none">
<path d="M2060 5090 c-729 -165 -1339 -617 -1708 -1266 -166 -292 -286 -667
-319 -1000 -13 -127 -9 -489 6 -599 79 -585 326 -1091 734 -1504 297 -300 647
-516 1045 -645 241 -78 221 -76 813 -76 500 0 535 1 612 20 353 88 728 275
1017 507 109 87 296 274 383 383 218 271 371 569 485 943 l37 122 0 575 0 575
-37 122 c-57 187 -103 305 -179 458 -125 253 -278 468 -482 674 -358 362 -791
601 -1292 712 l-130 29 -430 -1 -430 -1 -125 -28z m656 -601 c116 -44 216
-144 266 -269 21 -51 23 -75 26 -311 l3 -256 -58 -25 c-32 -14 -61 -24 -64
-22 -4 2 -7 120 -8 261 -1 142 -6 274 -12 295 -24 92 -119 186 -216 214 -172
50 -351 -45 -403 -213 -19 -61 -20 -93 -20 -460 l0 -394 -55 -25 c-31 -13 -58
-24 -60 -24 -3 0 -5 198 -5 439 0 489 2 505 70 611 61 95 179 176 291 200 62
13 181 3 245 -21z m-116 -289 c19 -19 20 -33 20 -369 l0 -350 -56 -25 c-31
-14 -58 -26 -60 -26 -2 0 -4 170 -4 377 0 336 2 378 17 395 21 24 58 23 83 -2z
m410 -2147 c0 -1396 2 -1347 -58 -1457 -62 -115 -192 -206 -325 -228 -216 -36
-432 99 -497 310 -19 62 -20 97 -20 1162 l0 1097 58 25 57 25 5 -1126 c5
-1124 5 -1126 26 -1171 30 -62 65 -106 112 -141 161 -118 388 -61 483 121 l24
45 5 1280 5 1280 55 27 c30 15 58 27 63 27 4 1 7 -574 7 -1276z m-400 -1273
c-15 -28 -55 -35 -85 -16 l-25 16 0 1164 0 1163 58 25 57 25 3 -1179 c1 -797
-1 -1185 -8 -1198z"/>
</g>
</svg>
